HIERARCHY
ROOT SpineBase
{
  OFFSET 0.000000 0.000000 0.000000
  CHANNELS 6 Xposition Yposition Zposition Zrotation Xrotation Yrotation
  JOINT SpineMid
  {
    OFFSET 0.000000 31.728888 0.000000
    CHANNELS 3 Zrotation Xrotation Yrotation
    JOINT SpineShoulder
    {
      OFFSET 0.161218 23.529722 -0.843797
      CHANNELS 3 Zrotation Xrotation Yrotation
      JOINT Neck
      {
        OFFSET 0.143178 7.768134 -0.624707
        CHANNELS 3 Zrotation Xrotation Yrotation
        JOINT Head
        {
          OFFSET 3.156693 12.855814 3.149911
          CHANNELS 3 Zrotation Xrotation Yrotation
          End Site
          {
            OFFSET 0 0 0
          }
        }
      }
      JOINT ShoulderLeft
      {
        OFFSET -8.830214 -3.105450 -14.613964
        CHANNELS 3 Zrotation Xrotation Yrotation
        JOINT ElbowLeft
        {
          OFFSET -6.097478 -24.171886 -7.417248
          CHANNELS 3 Zrotation Xrotation Yrotation
          JOINT WristLeft
          {
            OFFSET 1.947911 -22.231518 -4.481278
            CHANNELS 3 Zrotation Xrotation Yrotation
            JOINT HandLeft
            {
              OFFSET 1.166721 -7.248268 1.431429
              CHANNELS 3 Zrotation Xrotation Yrotation
              JOINT HandTipLeft
              {
                OFFSET 0.833188 -6.816199 -0.898107
                CHANNELS 3 Zrotation Xrotation Yrotation
                End Site
                {
                  OFFSET 0 0 0
                }
              }
              JOINT ThumbLeft
              {
                OFFSET 3.699564 1.766069 5.623267
                CHANNELS 3 Zrotation Xrotation Yrotation
                End Site
                {
                  OFFSET 0 0 0
                }
              }
            }
          }
        }
      }
      JOINT ShoulderRight
      {
        OFFSET 12.416047 -6.711469 9.925412
        CHANNELS 3 Zrotation Xrotation Yrotation
        JOINT ElbowRight
        {
          OFFSET 3.364109 -24.662563 4.423166
          CHANNELS 3 Zrotation Xrotation Yrotation
          JOINT WristRight
          {
            OFFSET 0.585838 -21.660797 -3.406304
            CHANNELS 3 Zrotation Xrotation Yrotation
            JOINT HandRight
            {
              OFFSET -0.986644 -6.205680 -1.150737
              CHANNELS 3 Zrotation Xrotation Yrotation
              JOINT HandTipRight
              {
                OFFSET 0.912308 -5.954394 -0.277542
                CHANNELS 3 Zrotation Xrotation Yrotation
                End Site
                {
                  OFFSET 0 0 0
                }
              }
              JOINT ThumbRight
              {
                OFFSET -2.597850 -0.906915 -2.493770
                CHANNELS 3 Zrotation Xrotation Yrotation
                End Site
                {
                  OFFSET 0 0 0
                }
              }
            }
          }
        }
      }
    }
  }
  JOINT HipLeft
  {
    OFFSET -3.668145 1.105564 -9.736802
    CHANNELS 3 Zrotation Xrotation Yrotation
    JOINT KneeLeft
    {
      OFFSET -11.431240 -28.448464 1.301311
      CHANNELS 3 Zrotation Xrotation Yrotation
      JOINT AnkleLeft
      {
        OFFSET -10.454458 -29.959255 5.086069
        CHANNELS 3 Zrotation Xrotation Yrotation
        JOINT FootLeft
        {
          OFFSET 8.148755 -4.516536 -9.765324
          CHANNELS 3 Zrotation Xrotation Yrotation
          End Site
          {
            OFFSET 0 0 0
          }
        }
      }
    }
  }
  JOINT HipRight
  {
    OFFSET 5.219707 0.074499 2.439086
    CHANNELS 3 Zrotation Xrotation Yrotation
    JOINT KneeRight
    {
      OFFSET -5.166393 -27.935179 4.852236
      CHANNELS 3 Zrotation Xrotation Yrotation
      JOINT AnkleRight
      {
        OFFSET -6.838214 -30.176364 4.714018
        CHANNELS 3 Zrotation Xrotation Yrotation
        JOINT FootRight
        {
          OFFSET 7.951697 -4.536942 -9.822631
          CHANNELS 3 Zrotation Xrotation Yrotation
          End Site
          {
            OFFSET 0 0 0
          }
        }
      }
    }
  }
}
MOTION
Frames: 8
Frame Time: 0.033333
-77.571982 68.474287 359.855870 -0.000000 0.000000 -53.872232 -0.000000 0.000000 53.872232 -0.000000 0.000000 0.000000 -0.000000 0.000000 0.000000 0.000000 0.000000 0.000000 -0.000000 0.000000 0.000000 -0.000000 0.000000 0.000000 -0.000000 0.000000 0.000000 -0.000000 0.000000 0.000000 0.000000 0.000000 0.000000 0.000000 0.000000 0.000000 -0.000000 0.000000 0.000000 -0.000000 0.000000 0.000000 -0.000000 0.000000 0.000000 -0.000000 0.000000 0.000000 0.000000 0.000000 0.000000 0.000000 0.000000 0.000000 -0.000000 0.000000 53.872232 -0.000000 0.000000 0.000000 -0.000000 0.000000 0.000000 0.000000 0.000000 0.000000 -0.000000 0.000000 53.872232 -0.000000 0.000000 0.000000 -0.000000 0.000000 0.000000 0.000000 0.000000 0.000000
-77.650479 68.440639 359.786011 0.007078 -0.081094 -53.962551 -0.069739 0.041985 53.962582 -0.000000 0.000000 0.000000 -0.000000 0.000000 0.000000 0.000000 0.000000 0.000000 -0.000000 0.000000 0.000000 -0.558700 0.571284 0.165365 -1.590001 1.072587 -0.312419 2.318190 -4.681009 -0.192289 0.000000 0.000000 0.000000 0.000000 0.000000 0.000000 -0.000000 0.000000 0.000000 -0.000000 0.000000 0.000000 2.007301 -0.758093 -0.239405 -2.395950 2.282805 0.528875 0.000000 0.000000 0.000000 0.000000 0.000000 0.000000 -0.069739 0.041985 53.962582 -0.000000 0.000000 0.000000 -0.000000 0.000000 0.000000 0.000000 0.000000 0.000000 -0.069739 0.041985 53.962582 -0.000000 0.000000 0.000000 -0.000000 0.000000 0.000000 0.000000 0.000000 0.000000
-77.719092 68.409868 359.717367 0.017821 -0.160782 -54.050929 -0.140622 0.079963 54.051053 -0.000000 0.000000 0.000000 -0.000000 0.000000 0.000000 0.000000 0.000000 0.000000 -0.000000 0.000000 0.000000 -0.938705 0.962294 0.281148 -2.577794 1.711092 -0.512808 3.767833 -8.282422 -0.346180 0.000000 0.000000 0.000000 0.000000 0.000000 0.000000 -0.000000 0.000000 0.000000 -0.000000 0.000000 0.000000 3.857740 -1.287963 -0.470963 -4.832163 3.938087 1.056854 0.000000 0.000000 0.000000 0.000000 0.000000 0.000000 -0.140622 0.079963 54.051053 -0.000000 0.000000 0.000000 -0.000000 0.000000 0.000000 0.000000 0.000000 0.000000 -0.140622 0.079963 54.051053 -0.000000 0.000000 0.000000 -0.000000 0.000000 0.000000 0.000000 0.000000 0.000000
-77.777820 68.381975 359.649936 0.032224 -0.239094 -54.137200 -0.212646 0.113957 54.137479 -0.000000 0.000000 0.000000 -0.000000 0.000000 0.000000 0.000000 0.000000 0.000000 -0.000000 0.000000 0.000000 -1.132205 1.167338 0.341642 -3.036056 1.956981 -0.619059 4.394679 -10.842515 -0.510798 0.000000 0.000000 0.000000 0.000000 0.000000 0.000000 -0.000000 0.000000 0.000000 -0.000000 0.000000 0.000000 5.532411 -1.575584 -0.707265 -7.275388 4.900206 1.555721 0.000000 0.000000 0.000000 0.000000 0.000000 0.000000 -0.212646 0.113957 54.137479 -0.000000 0.000000 0.000000 -0.000000 0.000000 0.000000 0.000000 0.000000 0.000000 -0.212646 0.113957 54.137479 -0.000000 0.000000 0.000000 -0.000000 0.000000 0.000000 0.000000 0.000000 0.000000
-77.826663 68.356958 359.583719 0.050283 -0.316057 -54.221195 -0.285810 0.143991 54.221693 -0.000000 0.000000 0.000000 -0.000000 0.000000 0.000000 0.000000 0.000000 0.000000 -0.596961 0.580631 0.039625 -0.537615 0.603189 0.298730 -3.005214 1.834274 -0.637662 4.221150 -12.384682 -0.706797 0.000000 0.000000 0.000000 0.000000 0.000000 0.000000 0.013846 -0.907625 -0.121041 -0.015765 0.907593 0.121275 7.015822 -1.610791 -0.959556 -9.684732 5.126128 1.989520 0.000000 0.000000 0.000000 0.000000 0.000000 0.000000 -0.285810 0.143991 54.221693 -0.000000 0.000000 0.000000 -0.000000 0.000000 0.000000 0.000000 0.000000 0.000000 -0.285810 0.143991 54.221693 -0.000000 0.000000 0.000000 -0.000000 0.000000 0.000000 0.000000 0.000000 0.000000
-77.865623 68.334819 359.518717 0.071997 -0.391699 -54.302750 -0.360115 0.170086 54.303531 -0.000000 0.000000 0.000000 -0.000000 0.000000 0.000000 0.000000 0.000000 0.000000 -0.652461 0.583487 0.056178 -0.294112 0.427002 0.228282 -2.492619 1.347447 -0.566595 3.251777 -12.911075 -0.928840 0.000000 0.000000 0.000000 0.000000 0.000000 0.000000 0.014922 -1.016577 -0.135644 -0.017331 1.016539 0.135930 8.295905 -1.386809 -1.236938 -12.014844 4.598286 2.317503 0.000000 0.000000 0.000000 0.000000 0.000000 0.000000 -0.360115 0.170086 54.303531 -0.000000 0.000000 0.000000 -0.000000 0.000000 0.000000 0.000000 0.000000 0.000000 -0.360115 0.170086 54.303531 -0.000000 0.000000 0.000000 -0.000000 0.000000 0.000000 0.000000 0.000000 0.000000
-77.899255 68.317466 359.457736 0.092885 -0.439098 -54.382782 -0.411049 0.180205 54.383784 -0.000000 0.000000 0.000000 -0.000000 0.000000 0.000000 0.000000 0.000000 0.000000 -0.000000 0.000000 0.000000 -0.000000 0.000000 0.000000 -1.391889 0.408551 -0.204710 0.029254 -9.587441 -0.857716 0.000000 0.000000 0.000000 0.000000 0.000000 0.000000 0.032266 -1.060010 -0.138275 -0.034830 1.059929 0.138896 10.652684 -0.461775 -1.893916 -16.330986 2.723462 2.782805 0.000000 0.000000 0.000000 0.000000 0.000000 0.000000 -0.411049 0.180205 54.383784 -0.000000 0.000000 0.000000 -0.000000 0.000000 0.000000 0.000000 0.000000 0.000000 -0.411049 0.180205 54.383784 -0.000000 0.000000 0.000000 -0.000000 0.000000 0.000000 0.000000 0.000000 0.000000
-77.927927 68.306847 359.396084 0.114086 -0.490706 -54.470729 -0.465645 0.192310 54.471999 -0.000000 0.000000 0.000000 -0.000000 0.000000 0.000000 0.000000 0.000000 0.000000 -0.000000 0.000000 0.000000 -0.000000 0.000000 0.000000 1.160237 -1.676161 -0.023606 -2.050061 -8.212044 -1.100411 0.000000 0.000000 0.000000 0.000000 0.000000 0.000000 0.039726 -0.917712 -0.117566 -0.041614 0.917628 0.118218 11.566869 1.117678 -2.478147 -18.758814 1.586436 3.073107 0.000000 0.000000 0.000000 0.000000 0.000000 0.000000 -0.465645 0.192310 54.471999 -0.000000 0.000000 0.000000 -0.000000 0.000000 0.000000 0.000000 0.000000 0.000000 -0.465645 0.192310 54.471999 -0.000000 0.000000 0.000000 -0.000000 0.000000 0.000000 0.000000 0.000000 0.000000
